<svg id="Слой_1" xmlns="http://www.w3.org/2000/svg" viewBox="0 0 203.8 146.4"><style>.st0{fill:#00afed}</style><path class="st0" d="M117.9 77v63.9c0 3.6-1.2 5.4-3.6 5.4-2.5.1-3.8-1.8-3.8-5.4V12c-.2-2.1-1.3-3.5-3.2-4.3-1.9-.8-3.7-.3-5.2 1.1-.8.7-1.4 1.7-2 2.6C69.4 55.2 38.7 99.1 8 142.9c-.5.8-1.1 1.6-1.7 2.2-1.4 1.4-3.4 1.5-4.9.3-1.4-1.1-1.9-3.1-.9-4.7 1-1.6 2.1-3.1 3.2-4.7C34.1 92.7 64.5 49.3 94.9 5.9c5.4-7.7 15.8-7.9 20.9-.4 1.6 2.4 2.2 5 2.2 7.8v18.9c-.1 14.9-.1 29.8-.1 44.8zm10.2.1V13c0-7 4.4-12.2 11.2-12.9 5-.5 8.8 1.6 11.7 5.6 9.1 13.1 18.2 26.1 27.3 39.2 7.7 11 15.5 22.1 23.1 33.2 4.7 6.8 2.3 15.5-5.1 18.8-1.8.8-3.8 1.1-5.7 1.1H151c-.6 0-1.2 0-1.7-.1-2.1-.3-3.2-1.7-3.2-3.7 0-1.9 1.3-3.3 3.4-3.6.6-.1 1.3 0 2 0h38.7c2.4 0 4.5-.4 5.7-2.7 1.2-2.3.3-4.3-1-6.2C178.4 58 162 34.4 145.5 10.8c-.5-.7-1-1.5-1.6-2-2.8-2.6-7.3-1.3-8.3 2.4-.3 1.1-.3 2.3-.3 3.5v127.2c0 3.4-2.1 5.2-4.8 4.3-1.5-.5-2.2-1.6-2.4-3-.1-.7-.1-1.4-.1-2.2.1-21.4.1-42.6.1-63.9z"/><path class="st0" d="M78.8 90.5h18.7c3 0 4.7 1.7 4.4 4.1-.3 2.1-1.8 3.3-4.3 3.3H63.1c-1.5 0-2.3.5-3.2 1.7C49.6 114.3 39.3 129 29 143.8c-.5.7-.9 1.5-1.7 1.9-1.7.9-3.2.7-4.6-.5-1.3-1.2-1.4-3.3-.2-5 3.5-5.1 7.1-10.2 10.7-15.3 7.3-10.5 14.7-21 22-31.5 1.4-2.1 3.1-2.9 5.6-2.9 6 .1 12 0 18 0z"/></svg>